PathFileType	4	(X/Y/Z)	6_coords_data.trc
DataRate	CameraRate	NumFrames	NumMarkers	Units	OrigDataRate	OrigDataStartFrame	OrigNumFrames
30.0	30.0	5	21	m	30.0	52	72
Frame#	Time	THUMB_TIP	THUMB_IP	THUMB_MCP	THUMB_CMC	INDEX_TIP	INDEX_DIP	INDEX_PIP	INDEX_MCP	MIDDLE_TIP	MIDDLE_DIP	MIDDLE_PIP	MIDDLE_MCP	RING_TIP	RING_DIP	RING_PIP	RING_MCP	PINKY_TIP	PINKY_DIP	PINKY_PIP	PINKY_MCP	WRIST
X1	Y1	Z1	X2	Y2	Z2	X3	Y3	Z3	X4	Y4	Z4	X5	Y5	Z5	X6	Y6	Z6	X7	Y7	Z7	X8	Y8	Z8	X9	Y9	Z9	X10	Y10	Z10	X11	Y11	Z11	X12	Y12	Z12	X13	Y13	Z13	X14	Y14	Z14	X15	Y15	Z15	X16	Y16	Z16	X17	Y17	Z17	X18	Y18	Z18	X19	Y19	Z19	X20	Y20	Z20	X21	Y21	Z21
51	1.7	0.05774610137939453	-0.12491000366210937	1.0289300537109376	0.04521160125732422	-0.10534300231933594	1.0448800048828124	0.02467410087585449	-0.09638790130615234	1.07027001953125	0.005350900173187256	-0.06869809722900391	1.085260009765625	0.06393730163574218	-0.08846019744873047	0.9730590209960938	0.045544700622558595	-0.0930530014038086	0.985968017578125	0.025857999801635743	-0.09644650268554687	1.001780029296875	-0.0015745099782943721	-0.09650730133056641	1.033239990234375	0.06696779632568359	-0.06499250030517578	0.9639929809570312	0.04601570129394531	-0.06895480346679687	0.9750360107421875	0.019490200042724608	-0.07295140075683594	0.9922550048828125	-0.00969884967803955	-0.07404609680175782	1.024010009765625	0.06268450164794923	-0.04034980010986328	0.966322021484375	0.04311800003051758	-0.04270489883422852	0.978406982421875	0.01957309913635254	-0.04625360107421875	0.995802001953125	-0.009287690162658692	-0.05055730056762695	1.026239990234375	0.05162799835205078	-0.019109100341796876	0.9944829711914063	0.033764801025390624	-0.02044230079650879	1.0033599853515625	0.016307500839233397	-0.022963899612426758	1.0135499877929688	-0.0060015001296997075	-0.029673700332641603	1.0333800048828126	-0.028494800567626953	-0.04721020126342773	1.103239990234375
52	1.7333333333333334	0.05886819839477539	-0.11991699981689453	1.0264200439453126	0.04578770065307617	-0.10166200256347656	1.04318994140625	0.025330299377441405	-0.09450659942626953	1.069800048828125	0.006115139961242676	-0.06765830230712891	1.08502001953125	0.06516110229492188	-0.0867405014038086	0.9751290283203125	0.04641080093383789	-0.09183180236816406	0.9872470092773438	0.026212200164794922	-0.09570189666748047	1.0023200073242187	-0.002043600082397461	-0.09637020111083984	1.033050048828125	0.06906349945068359	-0.06396070098876953	0.9679099731445312	0.04771870040893555	-0.06814669799804687	0.9774359741210937	0.02034029960632324	-0.0724052963256836	0.993135009765625	-0.010095499992370605	-0.07392279815673829	1.0236799926757814	0.06576629638671876	-0.040620098114013674	0.9708720092773437	0.04565489959716797	-0.04280189895629883	0.981458984375	0.02082200050354004	-0.04622129821777344	0.9969990234375	-0.009555259704589843	-0.05027259826660156	1.0261500244140624	0.053405601501464846	-0.02156529998779297	0.9963179931640626	0.03529700088500977	-0.021992599487304688	1.0044400024414062	0.017263799667358398	-0.023795000076293947	1.0140700073242188	-0.005893599987030029	-0.02940719985961914	1.0334599609375	-0.028014600753784178	-0.046810901641845704	1.1033499755859375
53	1.7666666666666666	0.05901029968261719	-0.11411699676513672	1.0228200073242188	0.045153400421142575	-0.09762200164794922	1.040949951171875	0.025770299911499022	-0.09244280242919922	1.0688499755859375	0.00634197998046875	-0.06672940063476562	1.0850400390625	0.06505699920654297	-0.08691380310058594	0.9757219848632812	0.04609059906005859	-0.09192720031738282	0.987405029296875	0.025666299819946288	-0.09576789855957031	1.00222998046875	-0.002549779891967773	-0.09625980377197266	1.032969970703125	0.07003990173339844	-0.06388199996948242	0.9701409912109376	0.048438201904296874	-0.06808380126953124	0.9789340209960937	0.020776599884033204	-0.07234600067138672	0.993781982421875	-0.010773099899291993	-0.07385440063476563	1.0235800170898437	0.0672842025756836	-0.04194919967651367	0.973323974609375	0.0469828987121582	-0.04378179931640625	0.9829600219726562	0.02150979995727539	-0.04672650146484375	0.9977360229492187	-0.010077599525451661	-0.05018759918212891	1.02593994140625	0.05464820098876953	-0.02499440002441406	0.9972639770507813	0.036421398162841796	-0.024365699768066407	1.004989990234375	0.018181499481201173	-0.0252367000579834	1.014219970703125	-0.005660950183868408	-0.029305700302124024	1.03343994140625	-0.027435400009155272	-0.04626160049438476	1.103739990234375
54	1.8	0.058079700469970706	-0.10981999969482421	1.01977001953125	0.04430170059204101	-0.09476339721679687	1.0387900390625	0.026039499282836914	-0.09142209625244141	1.067780029296875	0.006788770198822022	-0.06637989807128906	1.0845999755859375	0.06404900360107423	-0.08736309814453125	0.975031005859375	0.04504759979248047	-0.09224569702148437	0.9868159790039063	0.024645599365234375	-0.09595379638671875	1.0015999755859375	-0.003082079887390136	-0.09617310333251954	1.0330899658203125	0.07000669860839843	-0.06448660278320313	0.9705499877929687	0.04834230041503906	-0.068518798828125	0.9793610229492188	0.02058740043640137	-0.0725363998413086	0.9941669921875	-0.01128190040588379	-0.07380780029296875	1.023489990234375	0.06810489654541016	-0.04315750122070312	0.974447021484375	0.047658500671386717	-0.04477000045776367	0.9840150146484375	0.02199959945678711	-0.047355400085449216	0.998489013671875	-0.010497300148010254	-0.05013949966430664	1.02606005859375	0.05527159881591797	-0.028125900268554688	0.9974219970703125	0.037057498931884765	-0.02664509963989258	1.00502001953125	0.01868090057373047	-0.026756099700927734	1.0143099975585939	-0.005430419921875	-0.029315200805664063	1.0333900146484376	-0.027002500534057616	-0.04607730102539063	1.1035799560546875
55	1.8333333333333333	0.0567755012512207	-0.10794599914550781	1.0174500122070314	0.043277599334716796	-0.09364299774169922	1.0371700439453124	0.025783500671386718	-0.09131400299072266	1.0668800048828124	0.006755889892578125	-0.06628260040283203	1.0840899658203125	0.06283300018310548	-0.08795089721679687	0.9741420288085938	0.04387419891357422	-0.09267109680175781	0.986072021484375	0.023684000015258787	-0.09617489624023437	1.0010999755859376	-0.0036611499786376954	-0.09624320220947266	1.0327900390625	0.06984290313720704	-0.06493810272216796	0.9706110229492187	0.04814960098266602	-0.0688655014038086	0.9795139770507812	0.020368099212646484	-0.07273179626464844	0.99422802734375	-0.011783300399780273	-0.07381610107421875	1.0237100219726563	0.06845359802246094	-0.04369179916381836	0.97489599609375	0.04808560180664063	-0.04520009994506836	0.9844609985351562	0.02236520004272461	-0.047647499084472654	0.9989970092773437	-0.010655099868774415	-0.0501864013671875	1.0261300048828126	0.055617000579833986	-0.029955400466918945	0.9975579833984375	0.03745309829711914	-0.02801530075073242	1.0052000122070313	0.01914979934692383	-0.027655399322509766	1.014280029296875	-0.005047890186309813	-0.029441600799560548	1.03318994140625	-0.026465499877929687	-0.04618429946899414	1.103530029296875
